<svg preserveAspectRatio="none" width="100%" height="100%" overflow="visible" style="display: block;" viewBox="0 0 14.1885 16.5" fill="none" xmlns="http://www.w3.org/2000/svg">
<g id="flatten">
<g id="Union">
<path fill-rule="evenodd" clip-rule="evenodd" d="M10.3438 8.5C10.5671 8.5 10.7865 8.52012 11 8.55566C11.002 8.55599 11.0039 8.55631 11.0059 8.55664C11.1054 8.57336 11.2039 8.59244 11.3008 8.61621L11.4521 9.83203C11.5054 9.85419 11.5578 9.87803 11.6094 9.90332C11.6315 9.91413 11.653 9.92615 11.6748 9.9375C11.7023 9.95191 11.7299 9.96618 11.7568 9.98145C11.789 9.99951 11.8202 10.0188 11.8516 10.0381C11.8636 10.0455 11.8757 10.0529 11.8877 10.0605C11.9227 10.0827 11.9573 10.1053 11.9912 10.1289C11.9941 10.1309 11.9971 10.1327 12 10.1348C12.0355 10.1597 12.0711 10.1845 12.1055 10.2109L13.2344 9.73535C13.6759 10.1968 14.0074 10.7637 14.1885 11.3945L13.209 12.1357C13.224 12.2551 13.2334 12.3766 13.2334 12.5C13.2334 12.6288 13.2234 12.7555 13.207 12.8799L14.1836 13.6201C13.9998 14.2511 13.6652 14.8171 13.2207 15.2773L12.0908 14.8008C11.8967 14.9484 11.6833 15.0718 11.4551 15.167L11.3027 16.3828C10.9955 16.4584 10.6743 16.5 10.3438 16.5C10.0132 16.5 9.692 16.4584 9.38477 16.3828L9.23242 15.167C9.02832 15.0818 8.83725 14.9732 8.66016 14.8457C8.63932 14.8307 8.61808 14.8163 8.59766 14.8008L7.4668 15.2773C7.38167 15.1892 7.30238 15.0956 7.22559 15C7.22224 14.9958 7.21817 14.9915 7.21484 14.9873C6.89589 14.5867 6.65083 14.1247 6.50391 13.6201L7.48047 12.8799C7.46414 12.7556 7.45508 12.6288 7.45508 12.5C7.45508 12.3769 7.46358 12.2557 7.47852 12.1367L6.5 11.3945C6.68105 10.7638 7.01268 10.1967 7.4541 9.73535L8.58203 10.2109C8.78088 10.0576 9.00027 9.92985 9.23535 9.83203L9.38672 8.61621C9.69327 8.54093 10.014 8.50004 10.3438 8.5ZM10.3438 11.167C9.60757 11.1672 9.01074 11.7638 9.01074 12.5C9.01074 13.2362 9.60757 13.8328 10.3438 13.833C10.5823 13.833 10.8062 13.7699 11 13.6602C11.4042 13.4312 11.6777 12.9976 11.6777 12.5C11.6777 12.0022 11.4044 11.5688 11 11.3398C10.8063 11.2302 10.5821 11.167 10.3438 11.167Z" fill="var(--fill-0, #565656)"/>
<path fill-rule="evenodd" clip-rule="evenodd" d="M12 4V7.29102C11.9265 7.25219 11.85 7.21788 11.7695 7.19141L11.6582 7.15918L11.3389 7.09082C11.2272 7.07029 11.1141 7.05377 11 7.04004V5H7.5C7.22386 5 7 4.77614 7 4.5V1H1.5C1.22386 1 1 1.22386 1 1.5V13.5C1 13.7761 1.22386 14 1.5 14H5.05371C5.05711 14.013 5.05972 14.0261 5.06348 14.0391C5.16104 14.3742 5.29046 14.6952 5.44629 15H1.5C0.723336 15 0.0846097 14.4097 0.0078125 13.6533L0 13.5V1.5C1.812e-07 0.723337 0.590277 0.0846097 1.34668 0.0078125L1.5 0H8.05176L12 4ZM8 4H10.5947L8 1.37012V4Z" fill="var(--fill-0, #565656)"/>
</g>
</g>
</svg>
