<svg preserveAspectRatio="none" width="100%" height="100%" overflow="visible" style="display: block;" viewBox="0 0 13.665 14.0097" fill="none" xmlns="http://www.w3.org/2000/svg">
<g id="flatten">
<g id="Vector">
<path d="M12.3145 0.362176C13.606 1.10784 14.0483 2.75913 13.3028 4.05071L12.4024 5.61024C12.0614 6.20088 11.5303 6.6113 10.9314 6.81437L10.0974 7.91717L10.2183 7.98699C11.4739 8.71192 12.0316 10.2318 11.543 11.5968L11.4988 11.7202C11.0783 12.895 9.69611 13.4025 8.6155 12.7787L3.41173 9.77434C2.3311 9.15044 2.07964 7.69962 2.88679 6.74802L2.97154 6.6481C3.90936 5.54246 5.50367 5.26508 6.75926 5.98992L6.88105 6.06023L7.41775 4.78689C7.294 4.16656 7.38444 3.5009 7.72553 2.91004L8.62592 1.35052C9.3717 0.0591298 11.0229 -0.383416 12.3145 0.362176Z" fill="var(--fill-0, #565656)"/>
<path d="M6.82617 13.0097C7.10227 13.0098 7.32617 13.2336 7.32617 13.5097C7.32617 13.7858 7.10227 14.0097 6.82617 14.0097H0.5C0.223858 14.0097 0 13.7859 0 13.5097C0 13.2336 0.223858 13.0097 0.5 13.0097H6.82617Z" fill="var(--fill-0, #565656)"/>
</g>
</g>
</svg>
