<svg preserveAspectRatio="none" width="100%" height="100%" overflow="visible" style="display: block;" viewBox="0 0 14.0167 13.9957" fill="none" xmlns="http://www.w3.org/2000/svg">
<g id="original">
<path id="Subtract" d="M12.5167 0C13.345 0.000132063 14.0167 0.672631 14.0167 1.50098V11.1084L12.4317 8.4668C12.091 7.89903 11.4959 7.5425 10.8478 7.5L10.7179 7.49609H2.51671V1.50098C2.51671 0.672549 3.18828 0 4.01671 0H12.5167ZM5.26671 5.00098C4.99056 5.00098 4.76671 5.22483 4.76671 5.50098C4.76697 5.77689 4.99073 6.00098 5.26671 6.00098H8.76671C9.04257 6.00084 9.26644 5.77681 9.26671 5.50098C9.26671 5.22492 9.04274 5.00111 8.76671 5.00098H5.26671ZM5.26671 3.00098C4.99056 3.00098 4.76671 3.22483 4.76671 3.50098C4.76697 3.77689 4.99073 4.00098 5.26671 4.00098H11.2667C11.5425 4.00073 11.7664 3.77674 11.7667 3.50098C11.7667 3.22499 11.5426 3.00122 11.2667 3.00098H5.26671Z" fill="var(--fill-0, #565656)"/>
<path id="Rectangle 3469467" d="M0.454349 9.75298C0.254392 9.41971 0.494448 8.99573 0.883095 8.99573H10.7169C10.8925 8.99573 11.0553 9.08788 11.1457 9.23848L13.273 12.7841C13.593 13.3173 13.2089 13.9957 12.587 13.9957H3.2831C3.10746 13.9957 2.94471 13.9036 2.85435 13.753L0.454349 9.75298Z" fill="var(--fill-0, #565656)"/>
</g>
</svg>
