<svg preserveAspectRatio="none" width="100%" height="100%" overflow="visible" style="display: block;" viewBox="0 0 14 14" fill="none" xmlns="http://www.w3.org/2000/svg">
<g id="flatten">
<path id="Union" d="M5 0C5.55228 0 6 0.447715 6 1V6.25H8V3C8 2.44772 8.44772 2 9 2H10C10.5523 2 11 2.44772 11 3V6.25H13.25C13.6642 6.25 14 6.58579 14 7C14 7.41421 13.6642 7.75 13.25 7.75H11V11C11 11.5523 10.5523 12 10 12H9C8.44772 12 8 11.5523 8 11V7.75H6V13C6 13.5523 5.55228 14 5 14H4C3.44772 14 3 13.5523 3 13V7.75H0.75C0.335786 7.75 0 7.41421 0 7C0 6.58579 0.335786 6.25 0.75 6.25H3V1C3 0.447715 3.44772 0 4 0H5Z" fill="var(--fill-0, #565656)"/>
</g>
</svg>
